# Blender v2.82 (sub 7) OBJ File: ''
# www.blender.org
mtllib 0_01.mtl
o Cube
v 0.000000 1.499150 -0.537688
v 0.104898 1.499150 -0.527357
v 0.205764 1.499150 -0.496759
v 0.298724 1.499150 -0.447071
v 0.380203 1.499150 -0.380203
v 0.447071 1.499150 -0.298723
v 0.496759 1.499150 -0.205764
v 0.527357 1.499150 -0.104898
v 0.537688 1.499150 -0.000000
v 0.527357 1.499150 0.104898
v 0.496759 1.499150 0.205764
v 0.447071 1.499150 0.298723
v 0.380203 1.499150 0.380203
v 0.298723 1.499150 0.447071
v 0.205764 1.499150 0.496759
v 0.104898 1.499150 0.527357
v -0.000000 1.499150 0.537688
v -0.104898 1.499150 0.527357
v -0.205765 1.499150 0.496759
v -0.298724 1.499150 0.447071
v -0.380203 1.499150 0.380203
v -0.447072 1.499150 0.298723
v -0.496759 1.499150 0.205764
v -0.527357 1.499150 0.104897
v -0.537688 1.499150 -0.000001
v -0.527357 1.499150 -0.104898
v -0.496759 1.499150 -0.205765
v -0.447071 1.499150 -0.298724
v -0.380202 1.499150 -0.380203
v -0.298723 1.499150 -0.447072
v -0.205764 1.499150 -0.496759
v -0.104897 1.499150 -0.527357
v 1.000000 2.000000 -1.000000
v 1.000000 0.000000 -1.000000
v 1.000000 2.000000 1.000000
v 1.000000 0.000000 1.000000
v -1.000000 2.000000 -1.000000
v -1.000000 0.000000 -1.000000
v -1.000000 2.000000 1.000000
v -1.000000 0.000000 1.000000
v 0.000000 2.000000 -0.537688
v -0.104897 2.000000 -0.527357
v 0.104898 2.000000 -0.527357
v -0.205764 2.000000 -0.496759
v 0.205764 2.000000 -0.496759
v -0.298723 2.000000 -0.447072
v 0.298724 2.000000 -0.447071
v 0.380203 2.000000 -0.380203
v -0.380202 2.000000 -0.380203
v -0.447071 2.000000 -0.298724
v 0.447071 2.000000 -0.298723
v -0.496759 2.000000 -0.205765
v 0.496759 2.000000 -0.205764
v 0.527357 2.000000 -0.104898
v -0.527357 2.000000 -0.104898
v 0.527357 2.000000 0.104898
v 0.537688 2.000000 -0.000000
v 0.496759 2.000000 0.205764
v 0.447071 2.000000 0.298723
v 0.380203 2.000000 0.380203
v 0.298723 2.000000 0.447071
v 0.104898 2.000000 0.527357
v 0.205764 2.000000 0.496759
v -0.000000 2.000000 0.537688
v -0.104898 2.000000 0.527357
v -0.298724 2.000000 0.447071
v -0.205765 2.000000 0.496759
v -0.496759 2.000000 0.205764
v -0.447072 2.000000 0.298723
v -0.380203 2.000000 0.380203
v -0.527357 2.000000 0.104897
v -0.537688 2.000000 -0.000001
vt 0.968750 0.500000
vt 1.000000 0.965744
vt 1.000000 0.500000
vt 0.937500 0.500000
vt 0.968750 0.965744
vt 0.906250 0.500000
vt 0.937500 0.965744
vt 0.875000 0.500000
vt 0.906250 0.965744
vt 0.843750 0.500000
vt 0.875000 0.965744
vt 0.812500 0.500000
vt 0.843750 0.965744
vt 0.781250 0.500000
vt 0.812500 0.965744
vt 0.750000 0.500000
vt 0.781250 0.965744
vt 0.718750 0.500000
vt 0.750000 0.965744
vt 0.687500 0.500000
vt 0.718750 0.965744
vt 0.656250 0.500000
vt 0.687500 0.965744
vt 0.625000 0.500000
vt 0.656250 0.965744
vt 0.593750 0.500000
vt 0.625000 0.965744
vt 0.562500 0.500000
vt 0.593750 0.965744
vt 0.531250 0.500000
vt 0.562500 0.965744
vt 0.500000 0.500000
vt 0.531250 0.965744
vt 0.468750 0.500000
vt 0.500000 0.965744
vt 0.437500 0.500000
vt 0.468750 0.965744
vt 0.406250 0.500000
vt 0.437500 0.965744
vt 0.375000 0.500000
vt 0.406250 0.965744
vt 0.343750 0.500000
vt 0.375000 0.965744
vt 0.312500 0.500000
vt 0.343750 0.965744
vt 0.281250 0.500000
vt 0.312500 0.965744
vt 0.250000 0.500000
vt 0.281250 0.965744
vt 0.218750 0.500000
vt 0.250000 0.965744
vt 0.187500 0.500000
vt 0.218750 0.965744
vt 0.156250 0.500000
vt 0.187500 0.965744
vt 0.125000 0.500000
vt 0.156250 0.965744
vt 0.093750 0.500000
vt 0.125000 0.965744
vt 0.062500 0.500000
vt 0.093750 0.965744
vt 0.031250 0.500000
vt 0.062500 0.965744
vt 0.000000 0.500000
vt 0.031250 0.965744
vt 0.703178 0.014612
vt 0.985388 0.203178
vt 0.796822 0.485388
vt 0.625000 0.500000
vt 0.750000 0.557789
vt 0.736888 0.559080
vt 0.625000 0.750000
vt 0.375000 1.000000
vt 0.375000 0.750000
vt 0.625000 0.000000
vt 0.375000 0.250000
vt 0.375000 0.000000
vt 0.375000 0.500000
vt 0.125000 0.750000
vt 0.125000 0.500000
vt 0.625000 0.250000
vt 0.750000 0.692211
vt 0.763112 0.690920
vt 0.875000 0.750000
vt 0.000000 0.965744
vt 0.750000 0.490000
vt 0.703179 0.485389
vt 0.658156 0.471731
vt 0.616663 0.449553
vt 0.580295 0.419706
vt 0.514612 0.296822
vt 0.550447 0.383337
vt 0.528269 0.341844
vt 0.510000 0.250000
vt 0.514611 0.203179
vt 0.528269 0.158156
vt 0.550447 0.116663
vt 0.580294 0.080294
vt 0.616663 0.050447
vt 0.658156 0.028269
vt 0.750000 0.010000
vt 0.796822 0.014612
vt 0.841844 0.028269
vt 0.883337 0.050447
vt 0.919706 0.080294
vt 0.949553 0.116663
vt 0.971731 0.158156
vt 0.990000 0.250000
vt 0.985388 0.296822
vt 0.971731 0.341844
vt 0.949553 0.383337
vt 0.919706 0.419706
vt 0.883337 0.449553
vt 0.841844 0.471731
vt 0.875000 0.500000
vt 0.817211 0.625000
vt 0.815920 0.611888
vt 0.812095 0.599279
vt 0.684080 0.611888
vt 0.682789 0.625000
vt 0.687905 0.599280
vt 0.805884 0.587659
vt 0.797525 0.577475
vt 0.694116 0.587660
vt 0.702475 0.577475
vt 0.787340 0.569116
vt 0.775720 0.562905
vt 0.712660 0.569116
vt 0.724280 0.562905
vt 0.763112 0.559080
vt 0.625000 1.000000
vt 0.684080 0.638112
vt 0.687905 0.650721
vt 0.815920 0.638112
vt 0.694116 0.662340
vt 0.812095 0.650720
vt 0.805884 0.662340
vt 0.702475 0.672525
vt 0.712660 0.680884
vt 0.797525 0.672525
vt 0.787340 0.680884
vt 0.724279 0.687095
vt 0.736888 0.690920
vt 0.775721 0.687095
vn -0.0980 0.0000 0.9952
vn -0.2903 0.0000 0.9569
vn -0.4714 0.0000 0.8819
vn -0.6344 0.0000 0.7730
vn -0.7730 0.0000 0.6344
vn -0.8819 0.0000 0.4714
vn -0.9569 0.0000 0.2903
vn -0.9952 0.0000 0.0980
vn -0.9952 0.0000 -0.0980
vn -0.9569 0.0000 -0.2903
vn -0.8819 0.0000 -0.4714
vn -0.7730 0.0000 -0.6344
vn -0.6344 0.0000 -0.7730
vn -0.4714 0.0000 -0.8819
vn -0.2903 0.0000 -0.9569
vn -0.0980 -0.0000 -0.9952
vn 0.0980 0.0000 -0.9952
vn 0.2903 0.0000 -0.9569
vn 0.4714 0.0000 -0.8819
vn 0.6344 0.0000 -0.7730
vn 0.7730 0.0000 -0.6344
vn 0.8819 0.0000 -0.4714
vn 0.9569 0.0000 -0.2903
vn 0.9952 0.0000 -0.0980
vn 0.9952 0.0000 0.0980
vn 0.9569 0.0000 0.2903
vn 0.8819 0.0000 0.4714
vn 0.7730 0.0000 0.6344
vn 0.6344 0.0000 0.7730
vn 0.4714 0.0000 0.8819
vn 0.2903 0.0000 0.9569
vn 0.0980 0.0000 0.9952
vn 0.0000 1.0000 0.0000
vn 0.0000 0.0000 1.0000
vn -1.0000 0.0000 0.0000
vn 0.0000 -1.0000 0.0000
vn 1.0000 0.0000 0.0000
vn 0.0000 0.0000 -1.0000
usemtl Material
s off
f 2/1/1 41/2/1 1/3/1
f 3/4/2 43/5/2 2/1/2
f 4/6/3 45/7/3 3/4/3
f 5/8/4 47/9/4 4/6/4
f 6/10/5 48/11/5 5/8/5
f 7/12/6 51/13/6 6/10/6
f 8/14/7 53/15/7 7/12/7
f 9/16/8 54/17/8 8/14/8
f 10/18/9 57/19/9 9/16/9
f 11/20/10 56/21/10 10/18/10
f 12/22/11 58/23/11 11/20/11
f 13/24/12 59/25/12 12/22/12
f 14/26/13 60/27/13 13/24/13
f 15/28/14 61/29/14 14/26/14
f 16/30/15 63/31/15 15/28/15
f 17/32/16 62/33/16 16/30/16
f 18/34/17 64/35/17 17/32/17
f 19/36/18 65/37/18 18/34/18
f 20/38/19 67/39/19 19/36/19
f 21/40/20 66/41/20 20/38/20
f 22/42/21 70/43/21 21/40/21
f 23/44/22 69/45/22 22/42/22
f 24/46/23 68/47/23 23/44/23
f 25/48/24 71/49/24 24/46/24
f 26/50/25 72/51/25 25/48/25
f 27/52/26 55/53/26 26/50/26
f 28/54/27 52/55/27 27/52/27
f 29/56/28 50/57/28 28/54/28
f 30/58/29 49/59/29 29/56/29
f 31/60/30 46/61/30 30/58/30
f 32/62/31 44/63/31 31/60/31
f 1/64/32 42/65/32 32/62/32
f 18/66/33 10/67/33 2/68/33
f 33/69/33 41/70/33 43/71/33
f 35/72/34 40/73/34 36/74/34
f 39/75/35 38/76/35 40/77/35
f 34/78/36 40/79/36 38/80/36
f 33/69/37 36/74/37 34/78/37
f 37/81/38 34/78/38 38/76/38
f 64/82/33 65/83/33 39/84/33
f 2/1/1 43/5/1 41/2/1
f 3/4/2 45/7/2 43/5/2
f 4/6/3 47/9/3 45/7/3
f 5/8/4 48/11/4 47/9/4
f 6/10/5 51/13/5 48/11/5
f 7/12/6 53/15/6 51/13/6
f 8/14/7 54/17/7 53/15/7
f 9/16/8 57/19/8 54/17/8
f 10/18/9 56/21/9 57/19/9
f 11/20/10 58/23/10 56/21/10
f 12/22/11 59/25/11 58/23/11
f 13/24/12 60/27/12 59/25/12
f 14/26/13 61/29/13 60/27/13
f 15/28/14 63/31/14 61/29/14
f 16/30/15 62/33/15 63/31/15
f 17/32/16 64/35/16 62/33/16
f 18/34/17 65/37/17 64/35/17
f 19/36/18 67/39/18 65/37/18
f 20/38/19 66/41/19 67/39/19
f 21/40/20 70/43/20 66/41/20
f 22/42/21 69/45/21 70/43/21
f 23/44/22 68/47/22 69/45/22
f 24/46/23 71/49/23 68/47/23
f 25/48/24 72/51/24 71/49/24
f 26/50/25 55/53/25 72/51/25
f 27/52/26 52/55/26 55/53/26
f 28/54/27 50/57/27 52/55/27
f 29/56/28 49/59/28 50/57/28
f 30/58/29 46/61/29 49/59/29
f 31/60/30 44/63/30 46/61/30
f 32/62/31 42/65/31 44/63/31
f 1/64/32 41/85/32 42/65/32
f 2/68/33 1/86/33 32/87/33
f 32/87/33 31/88/33 2/68/33
f 31/88/33 30/89/33 2/68/33
f 30/89/33 29/90/33 26/91/33
f 29/90/33 28/92/33 26/91/33
f 28/92/33 27/93/33 26/91/33
f 26/91/33 25/94/33 24/95/33
f 24/95/33 23/96/33 22/97/33
f 22/97/33 21/98/33 20/99/33
f 20/99/33 19/100/33 18/66/33
f 18/66/33 17/101/33 16/102/33
f 16/102/33 15/103/33 14/104/33
f 14/104/33 13/105/33 10/67/33
f 13/105/33 12/106/33 10/67/33
f 12/106/33 11/107/33 10/67/33
f 10/67/33 9/108/33 8/109/33
f 8/109/33 7/110/33 6/111/33
f 6/111/33 5/112/33 2/68/33
f 5/112/33 4/113/33 2/68/33
f 4/113/33 3/114/33 2/68/33
f 26/91/33 24/95/33 22/97/33
f 22/97/33 20/99/33 26/91/33
f 20/99/33 18/66/33 26/91/33
f 18/66/33 16/102/33 14/104/33
f 10/67/33 8/109/33 2/68/33
f 8/109/33 6/111/33 2/68/33
f 2/68/33 30/89/33 26/91/33
f 18/66/33 14/104/33 10/67/33
f 2/68/33 26/91/33 18/66/33
f 37/115/33 72/116/33 55/117/33
f 37/115/33 55/117/33 52/118/33
f 54/119/33 57/120/33 33/69/33
f 53/121/33 54/119/33 33/69/33
f 37/115/33 52/118/33 50/122/33
f 37/115/33 50/122/33 49/123/33
f 51/124/33 53/121/33 33/69/33
f 48/125/33 51/124/33 33/69/33
f 37/115/33 49/123/33 46/126/33
f 37/115/33 46/126/33 44/127/33
f 47/128/33 48/125/33 33/69/33
f 45/129/33 47/128/33 33/69/33
f 33/69/33 37/115/33 41/70/33
f 37/115/33 44/127/33 42/130/33
f 37/115/33 42/130/33 41/70/33
f 43/71/33 45/129/33 33/69/33
f 35/72/34 39/131/34 40/73/34
f 39/75/35 37/81/35 38/76/35
f 34/78/36 36/74/36 40/79/36
f 33/69/37 35/72/37 36/74/37
f 37/81/38 33/69/38 34/78/38
f 33/69/33 57/120/33 35/72/33
f 57/120/33 56/132/33 35/72/33
f 56/132/33 58/133/33 35/72/33
f 72/116/33 37/115/33 39/84/33
f 71/134/33 72/116/33 39/84/33
f 35/72/33 58/133/33 59/135/33
f 68/136/33 71/134/33 39/84/33
f 69/137/33 68/136/33 39/84/33
f 35/72/33 59/135/33 60/138/33
f 35/72/33 60/138/33 61/139/33
f 70/140/33 69/137/33 39/84/33
f 66/141/33 70/140/33 39/84/33
f 35/72/33 61/139/33 63/142/33
f 35/72/33 63/142/33 62/143/33
f 67/144/33 66/141/33 39/84/33
f 65/83/33 67/144/33 39/84/33
f 39/84/33 35/72/33 64/82/33
f 35/72/33 62/143/33 64/82/33
