# Blender v2.82 (sub 7) OBJ File: 'quartoobjs.blend'
# www.blender.org
mtllib 1_10.mtl
o Cylinder_Cylinder.004
v 0.000000 0.000000 -1.000000
v 0.000000 4.000000 -0.999999
v 0.342020 4.000000 -0.939692
v 0.342020 0.000000 -0.939693
v 0.642788 4.000000 -0.766043
v 0.642788 0.000000 -0.766044
v 0.866025 4.000000 -0.499999
v 0.866025 0.000000 -0.500000
v 0.984808 4.000000 -0.173647
v 0.984808 0.000000 -0.173648
v 0.984808 4.000000 0.173649
v 0.984808 -0.000000 0.173648
v 0.866025 4.000000 0.500001
v 0.866025 -0.000000 0.500000
v 0.642788 4.000000 0.766045
v 0.642788 -0.000000 0.766044
v 0.342020 4.000000 0.939694
v 0.342020 -0.000000 0.939693
v 0.000000 4.000000 1.000001
v 0.000000 -0.000000 1.000000
v -0.342020 4.000000 0.939694
v -0.342020 -0.000000 0.939693
v -0.642787 4.000000 0.766046
v -0.642787 -0.000000 0.766045
v -0.866025 4.000000 0.500001
v -0.866025 -0.000000 0.500000
v -0.984808 4.000000 0.173650
v -0.984808 -0.000000 0.173649
v -0.984808 4.000000 -0.173647
v -0.984808 0.000000 -0.173648
v -0.866026 4.000000 -0.499998
v -0.866026 0.000000 -0.499999
v -0.642788 4.000000 -0.766043
v -0.642788 0.000000 -0.766044
v -0.342021 4.000000 -0.939691
v -0.342021 0.000000 -0.939692
vt 1.000000 1.000000
vt 0.944444 0.500000
vt 1.000000 0.500000
vt 0.944444 1.000000
vt 0.888889 0.500000
vt 0.888889 1.000000
vt 0.833333 0.500000
vt 0.833333 1.000000
vt 0.777778 0.500000
vt 0.777778 1.000000
vt 0.722222 0.500000
vt 0.722222 1.000000
vt 0.666667 0.500000
vt 0.666667 1.000000
vt 0.611111 0.500000
vt 0.611111 1.000000
vt 0.555555 0.500000
vt 0.555555 1.000000
vt 0.500000 0.500000
vt 0.500000 1.000000
vt 0.444444 0.500000
vt 0.444444 1.000000
vt 0.388889 0.500000
vt 0.388889 1.000000
vt 0.333333 0.500000
vt 0.333333 1.000000
vt 0.277778 0.500000
vt 0.277778 1.000000
vt 0.222222 0.500000
vt 0.222222 1.000000
vt 0.166666 0.500000
vt 0.166666 1.000000
vt 0.111111 0.500000
vt 0.095731 0.433851
vt 0.042154 0.130000
vt 0.332085 0.024474
vt 0.111111 1.000000
vt 0.055555 0.500000
vt 0.055555 1.000000
vt -0.000000 0.500000
vt 0.957846 0.370000
vt 0.595731 0.066149
vt 0.542154 0.370000
vt 0.404269 0.433851
vt 0.332085 0.475526
vt 0.250000 0.490000
vt 0.167915 0.475526
vt 0.042154 0.370000
vt 0.013646 0.291675
vt 0.013646 0.208324
vt 0.095731 0.066149
vt 0.167915 0.024474
vt 0.250000 0.010000
vt 0.404269 0.066149
vt 0.457846 0.130000
vt 0.486354 0.208324
vt 0.486354 0.291676
vt 0.457846 0.370000
vt -0.000000 1.000000
vt 0.667915 0.475526
vt 0.750000 0.490000
vt 0.832085 0.475526
vt 0.904269 0.433851
vt 0.986354 0.291676
vt 0.986354 0.208324
vt 0.957846 0.130000
vt 0.904269 0.066149
vt 0.832085 0.024474
vt 0.750000 0.010000
vt 0.667915 0.024474
vt 0.542154 0.130000
vt 0.513646 0.208324
vt 0.513646 0.291675
vt 0.595731 0.433851
vn 0.1736 0.0000 -0.9848
vn 0.5000 0.0000 -0.8660
vn 0.7660 0.0000 -0.6428
vn 0.9397 0.0000 -0.3420
vn 1.0000 -0.0000 0.0000
vn 0.9397 -0.0000 0.3420
vn 0.7660 -0.0000 0.6428
vn 0.5000 -0.0000 0.8660
vn 0.1736 -0.0000 0.9848
vn -0.1736 -0.0000 0.9848
vn -0.5000 -0.0000 0.8660
vn -0.7660 -0.0000 0.6428
vn -0.9397 -0.0000 0.3420
vn -1.0000 -0.0000 0.0000
vn -0.9397 0.0000 -0.3420
vn -0.7660 0.0000 -0.6428
vn 0.0000 1.0000 0.0000
vn -0.5000 0.0000 -0.8660
vn -0.1736 0.0000 -0.9848
vn -0.0000 -1.0000 -0.0000
usemtl None.003
s 1
f 2/1/1 4/2/1 1/3/1
f 3/4/2 6/5/2 4/2/2
f 5/6/3 8/7/3 6/5/3
f 7/8/4 10/9/4 8/7/4
f 9/10/5 12/11/5 10/9/5
f 11/12/6 14/13/6 12/11/6
f 13/14/7 16/15/7 14/13/7
f 15/16/8 18/17/8 16/15/8
f 17/18/9 20/19/9 18/17/9
f 19/20/10 22/21/10 20/19/10
f 21/22/11 24/23/11 22/21/11
f 23/24/12 26/25/12 24/23/12
f 25/26/13 28/27/13 26/25/13
f 27/28/14 30/29/14 28/27/14
f 29/30/15 32/31/15 30/29/15
f 31/32/16 34/33/16 32/31/16
f 33/34/17 25/35/17 17/36/17
f 33/37/18 36/38/18 34/33/18
f 35/39/19 1/40/19 36/38/19
f 8/41/20 24/42/20 32/43/20
f 2/1/1 3/4/1 4/2/1
f 3/4/2 5/6/2 6/5/2
f 5/6/3 7/8/3 8/7/3
f 7/8/4 9/10/4 10/9/4
f 9/10/5 11/12/5 12/11/5
f 11/12/6 13/14/6 14/13/6
f 13/14/7 15/16/7 16/15/7
f 15/16/8 17/18/8 18/17/8
f 17/18/9 19/20/9 20/19/9
f 19/20/10 21/22/10 22/21/10
f 21/22/11 23/24/11 24/23/11
f 23/24/12 25/26/12 26/25/12
f 25/26/13 27/28/13 28/27/13
f 27/28/14 29/30/14 30/29/14
f 29/30/15 31/32/15 32/31/15
f 31/32/16 33/37/16 34/33/16
f 5/44/17 3/45/17 2/46/17
f 2/46/17 35/47/17 5/44/17
f 35/47/17 33/34/17 5/44/17
f 33/34/17 31/48/17 25/35/17
f 31/48/17 29/49/17 25/35/17
f 29/49/17 27/50/17 25/35/17
f 25/35/17 23/51/17 21/52/17
f 21/52/17 19/53/17 25/35/17
f 19/53/17 17/36/17 25/35/17
f 17/36/17 15/54/17 13/55/17
f 13/55/17 11/56/17 9/57/17
f 9/57/17 7/58/17 33/34/17
f 7/58/17 5/44/17 33/34/17
f 17/36/17 13/55/17 33/34/17
f 13/55/17 9/57/17 33/34/17
f 33/37/18 35/39/18 36/38/18
f 35/39/19 2/59/19 1/40/19
f 36/60/20 1/61/20 4/62/20
f 4/62/20 6/63/20 36/60/20
f 6/63/20 8/41/20 36/60/20
f 8/41/20 10/64/20 12/65/20
f 12/65/20 14/66/20 8/41/20
f 14/66/20 16/67/20 8/41/20
f 16/67/20 18/68/20 20/69/20
f 20/69/20 22/70/20 24/42/20
f 24/42/20 26/71/20 32/43/20
f 26/71/20 28/72/20 32/43/20
f 28/72/20 30/73/20 32/43/20
f 32/43/20 34/74/20 36/60/20
f 16/67/20 20/69/20 8/41/20
f 20/69/20 24/42/20 8/41/20
f 32/43/20 36/60/20 8/41/20
