# Blender v2.82 (sub 7) OBJ File: 'quartoobjs.blend'
# www.blender.org
mtllib 1_11.mtl
o Cylinder_Cylinder.005
v 0.000000 2.768226 -0.615887
v 0.210646 2.768226 -0.578745
v 0.210646 4.000000 -0.578744
v 0.000000 4.000000 -0.615886
v 0.395885 2.768226 -0.471797
v 0.395885 4.000000 -0.471796
v 0.533374 2.768226 -0.307944
v 0.533374 4.000000 -0.307943
v 0.606530 2.768226 -0.106948
v 0.606530 4.000000 -0.106947
v 0.606530 2.768226 0.106948
v 0.606530 4.000000 0.106949
v 0.533374 2.768226 0.307944
v 0.533374 4.000000 0.307945
v 0.395885 2.768226 0.471797
v 0.395885 4.000000 0.471798
v 0.210646 2.768226 0.578745
v 0.210646 4.000000 0.578746
v 0.000000 2.768226 0.615887
v 0.000000 4.000000 0.615888
v -0.210646 2.768226 0.578745
v -0.210646 4.000000 0.578746
v -0.395885 2.768226 0.471797
v -0.395885 4.000000 0.471798
v -0.533374 2.768226 0.307944
v -0.533374 4.000000 0.307945
v -0.606530 2.768226 0.106948
v -0.606530 4.000000 0.106949
v -0.606530 2.768226 -0.106947
v -0.606530 4.000000 -0.106946
v -0.533374 2.768226 -0.307943
v -0.533374 4.000000 -0.307942
v -0.395885 2.768226 -0.471797
v -0.395885 4.000000 -0.471796
v -0.210646 2.768226 -0.578744
v -0.210646 4.000000 -0.578743
v 0.000000 0.000000 -1.000000
v 0.000000 4.000000 -0.999999
v 0.342020 4.000000 -0.939692
v 0.342020 0.000000 -0.939693
v 0.642788 4.000000 -0.766043
v 0.642788 0.000000 -0.766044
v 0.866025 4.000000 -0.499999
v 0.866025 0.000000 -0.500000
v 0.984808 4.000000 -0.173647
v 0.984808 0.000000 -0.173648
v 0.984808 4.000000 0.173649
v 0.984808 -0.000000 0.173648
v 0.866025 4.000000 0.500001
v 0.866025 -0.000000 0.500000
v 0.642788 4.000000 0.766045
v 0.642788 -0.000000 0.766044
v 0.342020 4.000000 0.939694
v 0.342020 -0.000000 0.939693
v 0.000000 4.000000 1.000001
v 0.000000 -0.000000 1.000000
v -0.342020 4.000000 0.939694
v -0.342020 -0.000000 0.939693
v -0.642787 4.000000 0.766046
v -0.642787 -0.000000 0.766045
v -0.866025 4.000000 0.500001
v -0.866025 -0.000000 0.500000
v -0.984808 4.000000 0.173650
v -0.984808 -0.000000 0.173649
v -0.984808 4.000000 -0.173647
v -0.984808 0.000000 -0.173648
v -0.866026 4.000000 -0.499998
v -0.866026 0.000000 -0.499999
v -0.642788 4.000000 -0.766043
v -0.642788 0.000000 -0.766044
v -0.342021 4.000000 -0.939691
v -0.342021 0.000000 -0.939692
vt 0.944444 0.500000
vt 1.000000 0.750000
vt 1.000000 0.500000
vt 0.888889 0.500000
vt 0.944444 0.750000
vt 0.833333 0.500000
vt 0.888889 0.750000
vt 0.777778 0.500000
vt 0.833333 0.750000
vt 0.722222 0.500000
vt 0.777778 0.750000
vt 0.666667 0.500000
vt 0.722222 0.750000
vt 0.611111 0.500000
vt 0.666667 0.750000
vt 0.555555 0.500000
vt 0.611111 0.750000
vt 0.500000 0.500000
vt 0.555555 0.750000
vt 0.444444 0.500000
vt 0.500000 0.750000
vt 0.388889 0.500000
vt 0.444444 0.750000
vt 0.333333 0.500000
vt 0.388889 0.750000
vt 0.277778 0.500000
vt 0.333333 0.750000
vt 0.222222 0.500000
vt 0.277778 0.750000
vt 0.166666 0.500000
vt 0.222222 0.750000
vt 0.111111 0.500000
vt 0.166666 0.750000
vt 0.055555 0.500000
vt 0.111111 0.750000
vt -0.000000 0.500000
vt 0.055555 0.750000
vt 0.986354 0.208324
vt 0.957846 0.370000
vt 0.542154 0.370000
vt 1.000000 1.000000
vt 0.944444 0.500000
vt 1.000000 0.500000
vt 0.944444 1.000000
vt 0.888889 0.500000
vt 0.888889 1.000000
vt 0.833333 0.500000
vt 0.833333 1.000000
vt 0.777778 0.500000
vt 0.777778 1.000000
vt 0.722222 0.500000
vt 0.722222 1.000000
vt 0.666667 0.500000
vt 0.666667 1.000000
vt 0.611111 0.500000
vt 0.611111 1.000000
vt 0.555555 0.500000
vt 0.555555 1.000000
vt 0.500000 0.500000
vt 0.500000 1.000000
vt 0.444444 0.500000
vt 0.444444 1.000000
vt 0.388889 0.500000
vt 0.388889 1.000000
vt 0.333333 0.500000
vt 0.333333 1.000000
vt 0.277778 0.500000
vt 0.277778 1.000000
vt 0.222222 0.500000
vt 0.222222 1.000000
vt 0.166666 0.500000
vt 0.166666 1.000000
vt 0.111111 0.500000
vt 0.250000 0.490000
vt 0.250000 0.397813
vt 0.300555 0.388899
vt 0.111111 1.000000
vt 0.055555 0.500000
vt 0.055555 1.000000
vt -0.000000 0.500000
vt 0.957846 0.370000
vt 0.595731 0.066149
vt 0.542154 0.370000
vt 0.250000 0.102187
vt 0.199445 0.111101
vt 0.250000 0.010000
vt -0.000000 0.750000
vt 0.832085 0.475526
vt 0.750000 0.490000
vt 0.667915 0.475526
vt 0.595731 0.433851
vt 0.513646 0.291675
vt 0.595731 0.066149
vt 0.513646 0.208324
vt 0.542154 0.130000
vt 0.667915 0.024474
vt 0.750000 0.010000
vt 0.832085 0.024474
vt 0.904269 0.066149
vt 0.957846 0.130000
vt 0.986354 0.291676
vt 0.904269 0.433851
vt 0.404269 0.433851
vt 0.332085 0.475526
vt 0.345012 0.363231
vt 0.167915 0.475526
vt 0.199445 0.388899
vt 0.095731 0.433851
vt 0.154988 0.363231
vt 0.042154 0.370000
vt 0.013646 0.291675
vt 0.121990 0.323906
vt 0.104433 0.275667
vt 0.457846 0.370000
vt 0.378010 0.323906
vt 0.395567 0.275667
vt 0.486354 0.291676
vt -0.000000 1.000000
vt 0.667915 0.475526
vt 0.750000 0.490000
vt 0.832085 0.475526
vt 0.904269 0.433851
vt 0.986354 0.291676
vt 0.986354 0.208324
vt 0.957846 0.130000
vt 0.904269 0.066149
vt 0.832085 0.024474
vt 0.750000 0.010000
vt 0.667915 0.024474
vt 0.542154 0.130000
vt 0.513646 0.208324
vt 0.513646 0.291675
vt 0.595731 0.433851
vt 0.486354 0.208324
vt 0.395567 0.224333
vt 0.404269 0.066149
vt 0.457846 0.130000
vt 0.345012 0.136769
vt 0.378010 0.176093
vt 0.332085 0.024474
vt 0.300555 0.111101
vt 0.095731 0.066149
vt 0.167915 0.024474
vt 0.154988 0.136769
vt 0.013646 0.208324
vt 0.042154 0.130000
vt 0.121990 0.176094
vt 0.104433 0.224333
vn -0.1736 -0.0000 0.9848
vn -0.5000 -0.0000 0.8660
vn -0.7660 -0.0000 0.6428
vn -0.9397 -0.0000 0.3420
vn -1.0000 -0.0000 0.0000
vn -0.9397 0.0000 -0.3420
vn -0.7660 0.0000 -0.6428
vn -0.5000 0.0000 -0.8660
vn -0.1736 0.0000 -0.9848
vn 0.1736 0.0000 -0.9848
vn 0.5000 0.0000 -0.8660
vn 0.7660 0.0000 -0.6428
vn 0.9397 0.0000 -0.3420
vn 1.0000 0.0000 0.0000
vn 0.9397 -0.0000 0.3420
vn 0.7660 -0.0000 0.6428
vn 0.5000 -0.0000 0.8660
vn 0.1737 -0.0000 0.9848
vn 0.1736 -0.0000 0.9848
vn 0.0000 1.0000 0.0000
vn -0.0000 -1.0000 -0.0000
usemtl None.004
s 1
f 2/1/1 4/2/1 1/3/1
f 5/4/2 3/5/2 2/1/2
f 7/6/3 6/7/3 5/4/3
f 9/8/4 8/9/4 7/6/4
f 11/10/5 10/11/5 9/8/5
f 13/12/6 12/13/6 11/10/6
f 15/14/7 14/15/7 13/12/7
f 17/16/8 16/17/8 15/14/8
f 19/18/9 18/19/9 17/16/9
f 21/20/10 20/21/10 19/18/10
f 23/22/11 22/23/11 21/20/11
f 25/24/12 24/25/12 23/22/12
f 27/26/13 26/27/13 25/24/13
f 29/28/14 28/29/14 27/26/14
f 31/30/15 30/31/15 29/28/15
f 33/32/16 32/33/16 31/30/16
f 35/34/17 34/35/17 33/32/17
f 1/36/18 36/37/19 35/34/18
f 11/38/20 7/39/20 31/40/20
f 38/41/10 40/42/10 37/43/10
f 39/44/11 42/45/11 40/42/11
f 41/46/12 44/47/12 42/45/12
f 43/48/13 46/49/13 44/47/13
f 45/50/14 48/51/14 46/49/14
f 47/52/15 50/53/15 48/51/15
f 49/54/16 52/55/16 50/53/16
f 51/56/17 54/57/17 52/55/17
f 53/58/19 56/59/19 54/57/19
f 55/60/1 58/61/1 56/59/1
f 57/62/2 60/63/2 58/61/2
f 59/64/3 62/65/3 60/63/3
f 61/66/4 64/67/4 62/65/4
f 63/68/5 66/69/5 64/67/5
f 65/70/6 68/71/6 66/69/6
f 67/72/7 70/73/7 68/71/7
f 38/74/20 4/75/20 3/76/20
f 69/77/8 72/78/8 70/73/8
f 71/79/9 37/80/9 72/78/9
f 44/81/21 60/82/21 68/83/21
f 20/84/20 22/85/20 55/86/20
f 2/1/1 3/5/1 4/2/1
f 5/4/2 6/7/2 3/5/2
f 7/6/3 8/9/3 6/7/3
f 9/8/4 10/11/4 8/9/4
f 11/10/5 12/13/5 10/11/5
f 13/12/6 14/15/6 12/13/6
f 15/14/7 16/17/7 14/15/7
f 17/16/8 18/19/8 16/17/8
f 19/18/9 20/21/9 18/19/9
f 21/20/10 22/23/10 20/21/10
f 23/22/11 24/25/11 22/23/11
f 25/24/12 26/27/12 24/25/12
f 27/26/13 28/29/13 26/27/13
f 29/28/14 30/31/14 28/29/14
f 31/30/15 32/33/15 30/31/15
f 33/32/16 34/35/16 32/33/16
f 35/34/17 36/37/17 34/35/17
f 1/36/18 4/87/19 36/37/19
f 2/88/20 1/89/20 35/90/20
f 35/90/20 33/91/20 31/40/20
f 31/40/20 29/92/20 23/93/20
f 29/92/20 27/94/20 23/93/20
f 27/94/20 25/95/20 23/93/20
f 23/93/20 21/96/20 19/97/20
f 19/97/20 17/98/20 15/99/20
f 15/99/20 13/100/20 11/38/20
f 11/38/20 9/101/20 7/39/20
f 7/39/20 5/102/20 2/88/20
f 2/88/20 35/90/20 7/39/20
f 35/90/20 31/40/20 7/39/20
f 23/93/20 19/97/20 31/40/20
f 19/97/20 15/99/20 31/40/20
f 15/99/20 11/38/20 31/40/20
f 38/41/10 39/44/10 40/42/10
f 39/44/11 41/46/11 42/45/11
f 41/46/12 43/48/12 44/47/12
f 43/48/13 45/50/13 46/49/13
f 45/50/14 47/52/14 48/51/14
f 47/52/15 49/54/15 50/53/15
f 49/54/16 51/56/16 52/55/16
f 51/56/17 53/58/17 54/57/17
f 53/58/19 55/60/19 56/59/19
f 55/60/1 57/62/1 58/61/1
f 57/62/2 59/64/2 60/63/2
f 59/64/3 61/66/3 62/65/3
f 61/66/4 63/68/4 64/67/4
f 63/68/5 65/70/5 66/69/5
f 65/70/6 67/72/6 68/71/6
f 67/72/7 69/77/7 70/73/7
f 41/103/20 39/104/20 6/105/20
f 39/104/20 38/74/20 3/76/20
f 6/105/20 39/104/20 3/76/20
f 38/74/20 71/106/20 36/107/20
f 71/106/20 69/108/20 34/109/20
f 69/108/20 67/110/20 34/109/20
f 67/110/20 65/111/20 32/112/20
f 34/109/20 67/110/20 32/112/20
f 65/111/20 30/113/20 32/112/20
f 71/106/20 34/109/20 36/107/20
f 43/114/20 41/103/20 8/115/20
f 8/115/20 41/103/20 6/105/20
f 10/116/20 45/117/20 43/114/20
f 8/115/20 10/116/20 43/114/20
f 38/74/20 36/107/20 4/75/20
f 69/77/8 71/79/8 72/78/8
f 71/79/9 38/118/9 37/80/9
f 72/119/21 37/120/21 40/121/21
f 40/121/21 42/122/21 72/119/21
f 42/122/21 44/81/21 72/119/21
f 44/81/21 46/123/21 48/124/21
f 48/124/21 50/125/21 44/81/21
f 50/125/21 52/126/21 44/81/21
f 52/126/21 54/127/21 56/128/21
f 56/128/21 58/129/21 60/82/21
f 60/82/21 62/130/21 68/83/21
f 62/130/21 64/131/21 68/83/21
f 64/131/21 66/132/21 68/83/21
f 68/83/21 70/133/21 72/119/21
f 52/126/21 56/128/21 44/81/21
f 56/128/21 60/82/21 44/81/21
f 68/83/21 72/119/21 44/81/21
f 47/134/20 45/117/20 10/116/20
f 47/134/20 10/116/20 12/135/20
f 51/136/20 49/137/20 16/138/20
f 49/137/20 47/134/20 14/139/20
f 16/138/20 49/137/20 14/139/20
f 55/86/20 53/140/20 18/141/20
f 53/140/20 51/136/20 16/138/20
f 59/142/20 57/143/20 24/144/20
f 57/143/20 55/86/20 22/85/20
f 24/144/20 57/143/20 22/85/20
f 63/145/20 61/146/20 26/147/20
f 61/146/20 59/142/20 24/144/20
f 30/113/20 65/111/20 63/145/20
f 28/148/20 30/113/20 63/145/20
f 61/146/20 24/144/20 26/147/20
f 53/140/20 16/138/20 18/141/20
f 47/134/20 12/135/20 14/139/20
f 26/147/20 28/148/20 63/145/20
f 55/86/20 18/141/20 20/84/20
